<?xml version="1.0"?>
<svg xmlns="http://www.w3.org/2000/svg" width="500" height="420" version="1.0" id="ezcGraph"><defs/><g id="ezcGraphChart" color-rendering="optimizeQuality" shape-rendering="geometricPrecision" text-rendering="optimizeLegibility"><path d=" M 0.0000,420.0000 L 0.0000,0.0000 L 500.0000,0.0000 L 500.0000,420.0000 L 0.0000,420.0000 z " style="fill: #eeeeec; fill-opacity: 1.00; stroke: none;" id="ezcGraphPolygon_1"/><path d=" M 0.0000,42.0000 L 0.0000,0.0000 L 500.0000,0.0000 L 500.0000,42.0000 L 0.0000,42.0000 z " style="fill: #000000; fill-opacity: 0.00; stroke: none;" id="ezcGraphPolygon_2"/><path d="M 253.32,243.05 L 365.82,243.05 A 112.50,112.50 0 0,1 156.66,300.62 z" style="fill: #3465a4; fill-opacity: 1.00; stroke: none; cursor: pointer;" id="ezcGraphCircleSector_4" onclick="top.location = 'https://bsd-hardware.info/?view=computers&amp;f=drive_hdd_vendor&amp;v=VMware&amp;p=0'"/><path d="M 253.45,243.55 L 365.32,243.55 A 112.00,112.00 0 0,1 157.35,300.79 z" style="fill: none; stroke: #1a3352; stroke-width: 1; stroke-opacity: 1.00; stroke-linecap: round; stroke-linejoin: round;" id="ezcGraphCircleSector_5"/><path d="M 250.00,231.00 L 153.34,288.57 A 112.50,112.50 0 0,1 269.13,120.14 z" style="fill: #4e9a06; fill-opacity: 1.00; stroke: none; cursor: pointer;" id="ezcGraphCircleSector_6" onclick="top.location = 'https://bsd-hardware.info/?view=computers&amp;f=drive_hdd_vendor&amp;v=QEMU&amp;p=0'"/><path d="M 249.55,230.69 L 153.52,287.88 A 112.00,112.00 0 0,1 268.56,120.55 z" style="fill: none; stroke: #274d03; stroke-width: 1; stroke-opacity: 1.00; stroke-linecap: round; stroke-linejoin: round;" id="ezcGraphCircleSector_7"/><path d="M 250.00,231.00 L 269.13,120.14 A 112.50,112.50 0 0,1 342.71,167.27 z" style="fill: #cc0000; fill-opacity: 1.00; stroke: none; cursor: pointer;" id="ezcGraphCircleSector_8" onclick="top.location = 'https://bsd-hardware.info/?view=computers&amp;f=drive_hdd_vendor&amp;v=VBOX&amp;p=0'"/><path d="M 250.69,229.92 L 269.54,120.72 A 112.00,112.00 0 0,1 342.01,167.14 z" style="fill: none; stroke: #660000; stroke-width: 1; stroke-opacity: 1.00; stroke-linecap: round; stroke-linejoin: round;" id="ezcGraphCircleSector_9"/><path d="M 250.00,231.00 L 342.71,167.27 A 112.50,112.50 0 0,1 362.44,227.34 z" style="fill: #edd400; fill-opacity: 1.00; stroke: none; cursor: pointer;" id="ezcGraphCircleSector_10" onclick="top.location = 'https://bsd-hardware.info/?view=computers&amp;f=drive_hdd_vendor&amp;v=Msft&amp;p=0'"/><path d="M 251.69,230.44 L 342.58,167.96 A 112.00,112.00 0 0,1 361.92,226.85 z" style="fill: none; stroke: #776a00; stroke-width: 1; stroke-opacity: 1.00; stroke-linecap: round; stroke-linejoin: round;" id="ezcGraphCircleSector_11"/><path d="M 250.00,231.00 L 362.44,227.34 A 112.50,112.50 0 0,1 362.49,229.17 z" style="fill: #75505b; fill-opacity: 1.00; stroke: none; cursor: pointer;" id="ezcGraphCircleSector_12" onclick="top.location = 'https://bsd-hardware.info/?view=computers&amp;f=drive_hdd_vendor&amp;v=SYNOLOGY&amp;p=0'"/><path d="M 311.42,229.50 L 361.96,227.85 A 112.00,112.00 0 0,1 361.98,228.68 z" style="fill: none; stroke: #3b282e; stroke-width: 1; stroke-opacity: 1.00; stroke-linecap: round; stroke-linejoin: round;" id="ezcGraphCircleSector_13"/><path d="M 250.00,231.00 L 362.49,229.17 A 112.50,112.50 0 0,1 362.50,231.00 z" style="fill: #f57900; fill-opacity: 1.00; stroke: none;" id="ezcGraphCircleSector_14"/><path d="M 311.43,230.50 L 361.99,229.68 A 112.00,112.00 0 0,1 362.00,230.50 z" style="fill: none; stroke: #7b3d00; stroke-width: 1; stroke-opacity: 1.00; stroke-linecap: round; stroke-linejoin: round;" id="ezcGraphCircleSector_15"/><path d=" M 181.3292,183.7902 L 141.1214,160.0000" style="fill: none; stroke: #000000; stroke-width: 1; stroke-opacity: 1.00; stroke-linecap: round; stroke-linejoin: round;" id="ezcGraphLine_16"/><ellipse cx="181.3292" cy="183.7902" rx="3.0000" ry="3.0000" style="fill: #000000; fill-opacity: 1.00; stroke: none;" id="ezcGraphCircle_17"/><ellipse cx="141.1214" cy="160.0000" rx="3.0000" ry="3.0000" style="fill: #000000; fill-opacity: 1.00; stroke: none;" id="ezcGraphCircle_18"/><path d=" M 294.9496,160.8289 L 322.2495,125.0000" style="fill: none; stroke: #000000; stroke-width: 1; stroke-opacity: 1.00; stroke-linecap: round; stroke-linejoin: round;" id="ezcGraphLine_20"/><ellipse cx="294.9496" cy="160.8289" rx="3.0000" ry="3.0000" style="fill: #000000; fill-opacity: 1.00; stroke: none;" id="ezcGraphCircle_21"/><ellipse cx="322.2495" cy="125.0000" rx="3.0000" ry="3.0000" style="fill: #000000; fill-opacity: 1.00; stroke: none;" id="ezcGraphCircle_22"/><path d=" M 329.1705,204.9907 L 374.4272,191.0000" style="fill: none; stroke: #000000; stroke-width: 1; stroke-opacity: 1.00; stroke-linecap: round; stroke-linejoin: round;" id="ezcGraphLine_24"/><ellipse cx="329.1705" cy="204.9907" rx="3.0000" ry="3.0000" style="fill: #000000; fill-opacity: 1.00; stroke: none;" id="ezcGraphCircle_25"/><ellipse cx="374.4272" cy="191.0000" rx="3.0000" ry="3.0000" style="fill: #000000; fill-opacity: 1.00; stroke: none;" id="ezcGraphCircle_26"/><path d=" M 333.3085,228.9655 L 380.9360,227.0000" style="fill: none; stroke: #000000; stroke-width: 1; stroke-opacity: 1.00; stroke-linecap: round; stroke-linejoin: round;" id="ezcGraphLine_28"/><ellipse cx="333.3085" cy="228.9655" rx="3.0000" ry="3.0000" style="fill: #000000; fill-opacity: 1.00; stroke: none;" id="ezcGraphCircle_29"/><ellipse cx="380.9360" cy="227.0000" rx="3.0000" ry="3.0000" style="fill: #000000; fill-opacity: 1.00; stroke: none;" id="ezcGraphCircle_30"/><path d=" M 333.3306,230.3218 L 377.0950,262.0000" style="fill: none; stroke: #000000; stroke-width: 1; stroke-opacity: 1.00; stroke-linecap: round; stroke-linejoin: round;" id="ezcGraphLine_32"/><ellipse cx="333.3306" cy="230.3218" rx="3.0000" ry="3.0000" style="fill: #000000; fill-opacity: 1.00; stroke: none;" id="ezcGraphCircle_33"/><ellipse cx="377.0950" cy="262.0000" rx="3.0000" ry="3.0000" style="fill: #000000; fill-opacity: 1.00; stroke: none;" id="ezcGraphCircle_34"/><path d=" M 275.4307,323.3975 L 275.4307,363.0000" style="fill: none; stroke: #000000; stroke-width: 1; stroke-opacity: 1.00; stroke-linecap: round; stroke-linejoin: round;" id="ezcGraphLine_36"/><ellipse cx="275.4307" cy="323.3975" rx="3.0000" ry="3.0000" style="fill: #000000; fill-opacity: 1.00; stroke: none;" id="ezcGraphCircle_37"/><ellipse cx="275.4307" cy="363.0000" rx="3.0000" ry="3.0000" style="fill: #000000; fill-opacity: 1.00; stroke: none;" id="ezcGraphCircle_38"/><g id="ezcGraphTextBox_3"><path d=" M 143.5000,42.0000 L 143.5000,0.5000 L 357.0000,0.5000 L 357.0000,42.0000 L 143.5000,42.0000 z " style="fill: #ffffff; fill-opacity: 0.00; stroke: none;" id="ezcGraphPolygon_40"/><text id="ezcGraphTextBox_3_text" x="144.0000" text-length="212.0000px" y="35.0000" style="font-size: 40px; font-family: 'Arial'; fill: #2e3436; fill-opacity: 1.00; stroke: none;">HDD Vendor</text></g><g id="ezcGraphTextBox_19" style=" cursor: pointer;" onclick="top.location = 'https://bsd-hardware.info/?view=computers&amp;f=drive_hdd_vendor&amp;v=QEMU&amp;p=0'"><path d=" M 32.8614,169.0000 L 32.8614,151.5000 L 136.1214,151.5000 L 136.1214,169.0000 L 32.8614,169.0000 z " style="fill: #ffffff; fill-opacity: 0.00; stroke: none;" id="ezcGraphPolygon_41"/><text id="ezcGraphTextBox_19_text" x="33.3614" text-length="101.7600px" y="165.6000" style="font-size: 16px; font-family: 'Arial'; fill: #2e3436; fill-opacity: 1.00; stroke: none;">QEMU (36.3%)</text></g><g id="ezcGraphTextBox_23" style=" cursor: pointer;" onclick="top.location = 'https://bsd-hardware.info/?view=computers&amp;f=drive_hdd_vendor&amp;v=VBOX&amp;p=0'"><path d=" M 327.7495,134.0000 L 327.7495,116.5000 L 431.0095,116.5000 L 431.0095,134.0000 L 327.7495,134.0000 z " style="fill: #ffffff; fill-opacity: 0.00; stroke: none;" id="ezcGraphPolygon_42"/><text id="ezcGraphTextBox_23_text" x="328.2495" text-length="101.7600px" y="130.6000" style="font-size: 16px; font-family: 'Arial'; fill: #2e3436; fill-opacity: 1.00; stroke: none;">VBOX (12.7%)</text></g><g id="ezcGraphTextBox_27" style=" cursor: pointer;" onclick="top.location = 'https://bsd-hardware.info/?view=computers&amp;f=drive_hdd_vendor&amp;v=Msft&amp;p=0'"><path d=" M 379.9272,200.0000 L 379.9272,182.5000 L 474.7072,182.5000 L 474.7072,200.0000 L 379.9272,200.0000 z " style="fill: #ffffff; fill-opacity: 0.00; stroke: none;" id="ezcGraphPolygon_43"/><text id="ezcGraphTextBox_27_text" x="380.4272" text-length="93.2800px" y="196.6000" style="font-size: 16px; font-family: 'Arial'; fill: #2e3436; fill-opacity: 1.00; stroke: none;">Msft (9.1%)</text></g><g id="ezcGraphTextBox_31" style=" cursor: pointer;" onclick="top.location = 'https://bsd-hardware.info/?view=computers&amp;f=drive_hdd_vendor&amp;v=SYNOLOGY&amp;p=0'"><path d=" M 386.4360,244.0500 L 386.4360,210.4500 L 455.7760,210.4500 L 455.7760,244.0500 L 386.4360,244.0500 z " style="fill: #ffffff; fill-opacity: 0.00; stroke: none;" id="ezcGraphPolygon_44"/><text id="ezcGraphTextBox_31_text" x="386.9360" text-length="67.8400px" y="224.5500" style="font-size: 16px; font-family: 'Arial'; fill: #2e3436; fill-opacity: 1.00; stroke: none;">SYNOLOGY</text><text id="ezcGraphTextBox_31_text" x="386.9360" text-length="50.8800px" y="242.1500" style="font-size: 16px; font-family: 'Arial'; fill: #2e3436; fill-opacity: 1.00; stroke: none;">(0.3%)</text></g><g id="ezcGraphTextBox_35"><path d=" M 382.5950,271.0000 L 382.5950,253.5000 L 494.3350,253.5000 L 494.3350,271.0000 L 382.5950,271.0000 z " style="fill: #ffffff; fill-opacity: 0.00; stroke: none;" id="ezcGraphPolygon_45"/><text id="ezcGraphTextBox_35_text" x="383.0950" text-length="110.2400px" y="267.6000" style="font-size: 16px; font-family: 'Arial'; fill: #2e3436; fill-opacity: 1.00; stroke: none;">Others (0.3%)</text></g><g id="ezcGraphTextBox_39" style=" cursor: pointer;" onclick="top.location = 'https://bsd-hardware.info/?view=computers&amp;f=drive_hdd_vendor&amp;v=VMware&amp;p=0'"><path d=" M 280.9307,372.0000 L 280.9307,354.5000 L 401.1507,354.5000 L 401.1507,372.0000 L 280.9307,372.0000 z " style="fill: #ffffff; fill-opacity: 0.00; stroke: none;" id="ezcGraphPolygon_46"/><text id="ezcGraphTextBox_39_text" x="281.4307" text-length="118.7200px" y="368.6000" style="font-size: 16px; font-family: 'Arial'; fill: #2e3436; fill-opacity: 1.00; stroke: none;">VMware (41.5%)</text></g></g></svg>
