<?xml version="1.0"?>
<svg xmlns="http://www.w3.org/2000/svg" width="500" height="420" version="1.0" id="ezcGraph"><defs/><g id="ezcGraphChart" color-rendering="optimizeQuality" shape-rendering="geometricPrecision" text-rendering="optimizeLegibility"><path d=" M 0.0000,420.0000 L 0.0000,0.0000 L 500.0000,0.0000 L 500.0000,420.0000 L 0.0000,420.0000 z " style="fill: #eeeeec; fill-opacity: 1.00; stroke: none;" id="ezcGraphPolygon_1"/><path d=" M 0.0000,42.0000 L 0.0000,0.0000 L 500.0000,0.0000 L 500.0000,42.0000 L 0.0000,42.0000 z " style="fill: #000000; fill-opacity: 0.00; stroke: none;" id="ezcGraphPolygon_2"/><path d="M 259.48,239.15 L 371.98,239.15 A 112.50,112.50 0 0,1 276.32,350.38 z" style="fill: #3465a4; fill-opacity: 1.00; stroke: none; cursor: pointer;" id="ezcGraphCircleSector_4" onclick="top.location = 'https://bsd-hardware.info/?view=computers&amp;f=node_model_family&amp;v=Oracle+VirtualBox&amp;p=0'"/><path d="M 260.06,239.65 L 371.48,239.65 A 112.00,112.00 0 0,1 276.74,349.81 z" style="fill: none; stroke: #1a3352; stroke-width: 1; stroke-opacity: 1.00; stroke-linecap: round; stroke-linejoin: round;" id="ezcGraphCircleSector_5"/><path d="M 250.00,231.00 L 266.84,342.23 A 112.50,112.50 0 0,1 158.99,297.13 z" style="fill: #4e9a06; fill-opacity: 1.00; stroke: none; cursor: pointer;" id="ezcGraphCircleSector_6" onclick="top.location = 'https://bsd-hardware.info/?view=computers&amp;f=node_model_family&amp;v=QEMU+Standard&amp;p=0'"/><path d="M 249.63,231.89 L 266.27,341.81 A 112.00,112.00 0 0,1 159.68,297.24 z" style="fill: none; stroke: #274d03; stroke-width: 1; stroke-opacity: 1.00; stroke-linecap: round; stroke-linejoin: round;" id="ezcGraphCircleSector_7"/><path d="M 250.00,231.00 L 158.99,297.13 A 112.50,112.50 0 0,1 146.81,186.18 z" style="fill: #cc0000; fill-opacity: 1.00; stroke: none; cursor: pointer;" id="ezcGraphCircleSector_8" onclick="top.location = 'https://bsd-hardware.info/?view=computers&amp;f=node_model_family&amp;v=Microsoft+Virtual&amp;p=0'"/><path d="M 249.00,231.11 L 159.10,296.43 A 112.00,112.00 0 0,1 147.07,186.84 z" style="fill: none; stroke: #660000; stroke-width: 1; stroke-opacity: 1.00; stroke-linecap: round; stroke-linejoin: round;" id="ezcGraphCircleSector_9"/><path d="M 250.00,231.00 L 146.81,186.18 A 112.50,112.50 0 0,1 230.13,120.27 z" style="fill: #edd400; fill-opacity: 1.00; stroke: none; cursor: pointer;" id="ezcGraphCircleSector_10" onclick="top.location = 'https://bsd-hardware.info/?view=computers&amp;f=node_model_family&amp;v=Intel+Virtual&amp;p=0'"/><path d="M 249.34,230.17 L 147.47,185.92 A 112.00,112.00 0 0,1 229.72,120.85 z" style="fill: none; stroke: #776a00; stroke-width: 1; stroke-opacity: 1.00; stroke-linecap: round; stroke-linejoin: round;" id="ezcGraphCircleSector_11"/><path d="M 250.00,231.00 L 230.13,120.27 A 112.50,112.50 0 0,1 296.23,128.44 z" style="fill: #75505b; fill-opacity: 1.00; stroke: none; cursor: pointer;" id="ezcGraphCircleSector_12" onclick="top.location = 'https://bsd-hardware.info/?view=computers&amp;f=node_model_family&amp;v=&amp;p=0'"/><path d="M 250.21,229.32 L 230.71,120.67 A 112.00,112.00 0 0,1 295.56,128.69 z" style="fill: none; stroke: #3b282e; stroke-width: 1; stroke-opacity: 1.00; stroke-linecap: round; stroke-linejoin: round;" id="ezcGraphCircleSector_13"/><path d="M 250.00,231.00 L 296.23,128.44 A 112.50,112.50 0 0,1 362.50,231.00 z" style="fill: #f57900; fill-opacity: 1.00; stroke: none;" id="ezcGraphCircleSector_14"/><path d="M 250.77,230.50 L 296.48,129.10 A 112.00,112.00 0 0,1 362.00,230.50 z" style="fill: none; stroke: #7b3d00; stroke-width: 1; stroke-opacity: 1.00; stroke-linecap: round; stroke-linejoin: round;" id="ezcGraphCircleSector_15"/><path d=" M 198.2972,165.6451 L 167.6849,132.0000" style="fill: none; stroke: #000000; stroke-width: 1; stroke-opacity: 1.00; stroke-linecap: round; stroke-linejoin: round;" id="ezcGraphLine_16"/><ellipse cx="198.2972" cy="165.6451" rx="3.0000" ry="3.0000" style="fill: #000000; fill-opacity: 1.00; stroke: none;" id="ezcGraphCircle_17"/><ellipse cx="167.6849" cy="132.0000" rx="3.0000" ry="3.0000" style="fill: #000000; fill-opacity: 1.00; stroke: none;" id="ezcGraphCircle_18"/><path d=" M 167.1637,240.0880 L 119.6778,244.0000" style="fill: none; stroke: #000000; stroke-width: 1; stroke-opacity: 1.00; stroke-linecap: round; stroke-linejoin: round;" id="ezcGraphLine_20"/><ellipse cx="167.1637" cy="240.0880" rx="3.0000" ry="3.0000" style="fill: #000000; fill-opacity: 1.00; stroke: none;" id="ezcGraphCircle_21"/><ellipse cx="119.6778" cy="244.0000" rx="3.0000" ry="3.0000" style="fill: #000000; fill-opacity: 1.00; stroke: none;" id="ezcGraphCircle_22"/><path d=" M 217.8470,307.8806 L 195.0102,346.0000" style="fill: none; stroke: #000000; stroke-width: 1; stroke-opacity: 1.00; stroke-linecap: round; stroke-linejoin: round;" id="ezcGraphLine_24"/><ellipse cx="217.8470" cy="307.8806" rx="3.0000" ry="3.0000" style="fill: #000000; fill-opacity: 1.00; stroke: none;" id="ezcGraphCircle_25"/><ellipse cx="195.0102" cy="346.0000" rx="3.0000" ry="3.0000" style="fill: #000000; fill-opacity: 1.00; stroke: none;" id="ezcGraphCircle_26"/><path d=" M 260.2185,148.2956 L 256.0000,106.0000" style="fill: none; stroke: #000000; stroke-width: 1; stroke-opacity: 1.00; stroke-linecap: round; stroke-linejoin: round;" id="ezcGraphLine_28"/><ellipse cx="260.2185" cy="148.2956" rx="3.0000" ry="3.0000" style="fill: #000000; fill-opacity: 1.00; stroke: none;" id="ezcGraphCircle_29"/><ellipse cx="256.0000" cy="106.0000" rx="3.0000" ry="3.0000" style="fill: #000000; fill-opacity: 1.00; stroke: none;" id="ezcGraphCircle_30"/><path d=" M 319.9924,185.7726 L 360.8857,163.0000" style="fill: none; stroke: #000000; stroke-width: 1; stroke-opacity: 1.00; stroke-linecap: round; stroke-linejoin: round;" id="ezcGraphLine_32"/><ellipse cx="319.9924" cy="185.7726" rx="3.0000" ry="3.0000" style="fill: #000000; fill-opacity: 1.00; stroke: none;" id="ezcGraphCircle_33"/><ellipse cx="360.8857" cy="163.0000" rx="3.0000" ry="3.0000" style="fill: #000000; fill-opacity: 1.00; stroke: none;" id="ezcGraphCircle_34"/><path d=" M 322.6593,293.4873 L 343.7724,320.0000" style="fill: none; stroke: #000000; stroke-width: 1; stroke-opacity: 1.00; stroke-linecap: round; stroke-linejoin: round;" id="ezcGraphLine_36"/><ellipse cx="322.6593" cy="293.4873" rx="3.0000" ry="3.0000" style="fill: #000000; fill-opacity: 1.00; stroke: none;" id="ezcGraphCircle_37"/><ellipse cx="343.7724" cy="320.0000" rx="3.0000" ry="3.0000" style="fill: #000000; fill-opacity: 1.00; stroke: none;" id="ezcGraphCircle_38"/><g id="ezcGraphTextBox_3"><path d=" M 122.3000,42.0000 L 122.3000,0.5000 L 378.2000,0.5000 L 378.2000,42.0000 L 122.3000,42.0000 z " style="fill: #ffffff; fill-opacity: 0.00; stroke: none;" id="ezcGraphPolygon_40"/><text id="ezcGraphTextBox_3_text" x="122.8000" text-length="254.4000px" y="35.0000" style="font-size: 40px; font-family: 'Arial'; fill: #2e3436; fill-opacity: 1.00; stroke: none;">Model Family</text></g><g id="ezcGraphTextBox_19" style=" cursor: pointer;" onclick="top.location = 'https://bsd-hardware.info/?view=computers&amp;f=node_model_family&amp;v=Intel+Virtual&amp;p=0'"><path d=" M 57.8349,148.0500 L 57.8349,116.4500 L 162.6849,116.4500 L 162.6849,148.0500 L 57.8349,148.0500 z " style="fill: #ffffff; fill-opacity: 0.00; stroke: none;" id="ezcGraphPolygon_41"/><text id="ezcGraphTextBox_19_text" x="58.3349" text-length="103.3500px" y="129.7000" style="font-size: 15px; font-family: 'Arial'; fill: #2e3436; fill-opacity: 1.00; stroke: none;">Intel Virtual</text><text id="ezcGraphTextBox_19_text" x="106.0349" text-length="55.6500px" y="146.2000" style="font-size: 15px; font-family: 'Arial'; fill: #2e3436; fill-opacity: 1.00; stroke: none;">(15.7%)</text></g><g id="ezcGraphTextBox_23" style=" cursor: pointer;" onclick="top.location = 'https://bsd-hardware.info/?view=computers&amp;f=node_model_family&amp;v=Microsoft+Virtual&amp;p=0'"><path d=" M 1.8778,260.0500 L 1.8778,228.4500 L 114.6778,228.4500 L 114.6778,260.0500 L 1.8778,260.0500 z " style="fill: #ffffff; fill-opacity: 0.00; stroke: none;" id="ezcGraphPolygon_42"/><text id="ezcGraphTextBox_23_text" x="42.1278" text-length="71.5500px" y="241.7000" style="font-size: 15px; font-family: 'Arial'; fill: #2e3436; fill-opacity: 1.00; stroke: none;">Microsoft</text><text id="ezcGraphTextBox_23_text" x="2.3778" text-length="111.3000px" y="258.2000" style="font-size: 15px; font-family: 'Arial'; fill: #2e3436; fill-opacity: 1.00; stroke: none;">Vir... (16.5%)</text></g><g id="ezcGraphTextBox_27" style=" cursor: pointer;" onclick="top.location = 'https://bsd-hardware.info/?view=computers&amp;f=node_model_family&amp;v=QEMU+Standard&amp;p=0'"><path d=" M 85.1602,362.0500 L 85.1602,330.4500 L 190.0102,330.4500 L 190.0102,362.0500 L 85.1602,362.0500 z " style="fill: #ffffff; fill-opacity: 0.00; stroke: none;" id="ezcGraphPolygon_43"/><text id="ezcGraphTextBox_27_text" x="85.6602" text-length="103.3500px" y="343.7000" style="font-size: 15px; font-family: 'Arial'; fill: #2e3436; fill-opacity: 1.00; stroke: none;">QEMU Standard</text><text id="ezcGraphTextBox_27_text" x="133.3602" text-length="55.6500px" y="360.2000" style="font-size: 15px; font-family: 'Arial'; fill: #2e3436; fill-opacity: 1.00; stroke: none;">(17.4%)</text></g><g id="ezcGraphTextBox_31" style=" cursor: pointer;" onclick="top.location = 'https://bsd-hardware.info/?view=computers&amp;f=node_model_family&amp;v=&amp;p=0'"><path d=" M 261.5000,114.5000 L 261.5000,98.0000 L 374.3000,98.0000 L 374.3000,114.5000 L 261.5000,114.5000 z " style="fill: #ffffff; fill-opacity: 0.00; stroke: none;" id="ezcGraphPolygon_44"/><text id="ezcGraphTextBox_31_text" x="262.0000" text-length="111.3000px" y="111.2500" style="font-size: 15px; font-family: 'Arial'; fill: #2e3436; fill-opacity: 1.00; stroke: none;">Unknown (9.6%)</text></g><g id="ezcGraphTextBox_35"><path d=" M 366.3857,171.5000 L 366.3857,155.0000 L 479.1857,155.0000 L 479.1857,171.5000 L 366.3857,171.5000 z " style="fill: #ffffff; fill-opacity: 0.00; stroke: none;" id="ezcGraphPolygon_45"/><text id="ezcGraphTextBox_35_text" x="366.8857" text-length="111.3000px" y="168.2500" style="font-size: 15px; font-family: 'Arial'; fill: #2e3436; fill-opacity: 1.00; stroke: none;">Others (18.3%)</text></g><g id="ezcGraphTextBox_39" style=" cursor: pointer;" onclick="top.location = 'https://bsd-hardware.info/?view=computers&amp;f=node_model_family&amp;v=Oracle+VirtualBox&amp;p=0'"><path d=" M 349.2724,336.0500 L 349.2724,304.4500 L 477.9724,304.4500 L 477.9724,336.0500 L 349.2724,336.0500 z " style="fill: #ffffff; fill-opacity: 0.00; stroke: none;" id="ezcGraphPolygon_46"/><text id="ezcGraphTextBox_39_text" x="349.7724" text-length="127.2000px" y="317.7000" style="font-size: 15px; font-family: 'Arial'; fill: #2e3436; fill-opacity: 1.00; stroke: none;">Oracle Virtua...</text><text id="ezcGraphTextBox_39_text" x="349.7724" text-length="55.6500px" y="334.2000" style="font-size: 15px; font-family: 'Arial'; fill: #2e3436; fill-opacity: 1.00; stroke: none;">(22.6%)</text></g></g></svg>
