<?xml version="1.0"?>
<svg xmlns="http://www.w3.org/2000/svg" width="500" height="420" version="1.0" id="ezcGraph"><defs/><g id="ezcGraphChart" color-rendering="optimizeQuality" shape-rendering="geometricPrecision" text-rendering="optimizeLegibility"><path d=" M 0.0000,420.0000 L 0.0000,0.0000 L 500.0000,0.0000 L 500.0000,420.0000 L 0.0000,420.0000 z " style="fill: #eeeeec; fill-opacity: 1.00; stroke: none;" id="ezcGraphPolygon_1"/><path d=" M 0.0000,42.0000 L 0.0000,0.0000 L 500.0000,0.0000 L 500.0000,42.0000 L 0.0000,42.0000 z " style="fill: #000000; fill-opacity: 0.00; stroke: none;" id="ezcGraphPolygon_2"/><path d="M 256.18,241.86 L 368.68,241.86 A 112.50,112.50 0 0,1 198.76,338.60 z" style="fill: #3465a4; fill-opacity: 1.00; stroke: none; cursor: pointer;" id="ezcGraphCircleSector_4" onclick="top.location = 'https://bsd-hardware.info/?view=computers&amp;f=storage_model&amp;v=Intel+82371AB%2FEB%2FMB+PIIX4+IDE&amp;p=0'"/><path d="M 256.47,242.36 L 368.18,242.36 A 112.00,112.00 0 0,1 199.44,338.43 z" style="fill: none; stroke: #1a3352; stroke-width: 1; stroke-opacity: 1.00; stroke-linecap: round; stroke-linejoin: round;" id="ezcGraphCircleSector_5"/><path d="M 250.00,231.00 L 192.57,327.74 A 112.50,112.50 0 0,1 138.41,216.74 z" style="fill: #4e9a06; fill-opacity: 1.00; stroke: none; cursor: pointer;" id="ezcGraphCircleSector_6" onclick="top.location = 'https://bsd-hardware.info/?view=computers&amp;f=storage_model&amp;v=Intel+82371SB+PIIX3+IDE+%5BNatoma%2FTriton+II%5D&amp;p=0'"/><path d="M 249.18,231.40 L 192.40,327.05 A 112.00,112.00 0 0,1 138.84,217.30 z" style="fill: none; stroke: #274d03; stroke-width: 1; stroke-opacity: 1.00; stroke-linecap: round; stroke-linejoin: round;" id="ezcGraphCircleSector_7"/><path d="M 250.00,231.00 L 138.41,216.74 A 112.50,112.50 0 0,1 199.75,130.35 z" style="fill: #cc0000; fill-opacity: 1.00; stroke: none; cursor: pointer;" id="ezcGraphCircleSector_8" onclick="top.location = 'https://bsd-hardware.info/?view=computers&amp;f=storage_model&amp;v=Red+Hat+Virtio+block+device&amp;p=0'"/><path d="M 249.13,230.39 L 138.97,216.31 A 112.00,112.00 0 0,1 199.52,131.02 z" style="fill: none; stroke: #660000; stroke-width: 1; stroke-opacity: 1.00; stroke-linecap: round; stroke-linejoin: round;" id="ezcGraphCircleSector_9"/><path d="M 250.00,231.00 L 199.75,130.35 A 112.50,112.50 0 0,1 251.02,118.50 z" style="fill: #edd400; fill-opacity: 1.00; stroke: none; cursor: pointer;" id="ezcGraphCircleSector_10" onclick="top.location = 'https://bsd-hardware.info/?view=computers&amp;f=storage_model&amp;v=Red+Hat+Virtio+SCSI&amp;p=0'"/><path d="M 249.52,228.92 L 200.42,130.57 A 112.00,112.00 0 0,1 250.52,119.00 z" style="fill: none; stroke: #776a00; stroke-width: 1; stroke-opacity: 1.00; stroke-linecap: round; stroke-linejoin: round;" id="ezcGraphCircleSector_11"/><path d="M 250.00,231.00 L 251.02,118.50 A 112.50,112.50 0 0,1 298.42,129.45 z" style="fill: #75505b; fill-opacity: 1.00; stroke: none; cursor: pointer;" id="ezcGraphCircleSector_12" onclick="top.location = 'https://bsd-hardware.info/?view=computers&amp;f=storage_model&amp;v=LSI+Logic+%2F+Symbios+Logic+53c1030+PCI-X+Fusion-MPT+Dual+Ultra320+SCSI&amp;p=0'"/><path d="M 250.52,228.75 L 251.52,119.01 A 112.00,112.00 0 0,1 297.75,129.69 z" style="fill: none; stroke: #3b282e; stroke-width: 1; stroke-opacity: 1.00; stroke-linecap: round; stroke-linejoin: round;" id="ezcGraphCircleSector_13"/><path d="M 250.00,231.00 L 298.42,129.45 A 112.50,112.50 0 0,1 362.50,231.00 z" style="fill: #f57900; fill-opacity: 1.00; stroke: none;" id="ezcGraphCircleSector_14"/><path d="M 250.79,230.50 L 298.65,130.12 A 112.00,112.00 0 0,1 362.00,230.50 z" style="fill: none; stroke: #7b3d00; stroke-width: 1; stroke-opacity: 1.00; stroke-linecap: round; stroke-linejoin: round;" id="ezcGraphCircleSector_15"/><path d=" M 231.2459,149.8044 L 216.7787,109.0000" style="fill: none; stroke: #000000; stroke-width: 1; stroke-opacity: 1.00; stroke-linecap: round; stroke-linejoin: round;" id="ezcGraphLine_16"/><ellipse cx="231.2459" cy="149.8044" rx="3.0000" ry="3.0000" style="fill: #000000; fill-opacity: 1.00; stroke: none;" id="ezcGraphCircle_17"/><ellipse cx="216.7787" cy="109.0000" rx="3.0000" ry="3.0000" style="fill: #000000; fill-opacity: 1.00; stroke: none;" id="ezcGraphCircle_18"/><path d=" M 182.0522,182.7554 L 142.5308,158.0000" style="fill: none; stroke: #000000; stroke-width: 1; stroke-opacity: 1.00; stroke-linecap: round; stroke-linejoin: round;" id="ezcGraphLine_20"/><ellipse cx="182.0522" cy="182.7554" rx="3.0000" ry="3.0000" style="fill: #000000; fill-opacity: 1.00; stroke: none;" id="ezcGraphCircle_21"/><ellipse cx="142.5308" cy="158.0000" rx="3.0000" ry="3.0000" style="fill: #000000; fill-opacity: 1.00; stroke: none;" id="ezcGraphCircle_22"/><path d=" M 175.1079,267.5460 L 131.2658,285.0000" style="fill: none; stroke: #000000; stroke-width: 1; stroke-opacity: 1.00; stroke-linecap: round; stroke-linejoin: round;" id="ezcGraphLine_24"/><ellipse cx="175.1079" cy="267.5460" rx="3.0000" ry="3.0000" style="fill: #000000; fill-opacity: 1.00; stroke: none;" id="ezcGraphCircle_25"/><ellipse cx="131.2658" cy="285.0000" rx="3.0000" ry="3.0000" style="fill: #000000; fill-opacity: 1.00; stroke: none;" id="ezcGraphCircle_26"/><path d=" M 268.7541,149.8044 L 283.2213,109.0000" style="fill: none; stroke: #000000; stroke-width: 1; stroke-opacity: 1.00; stroke-linecap: round; stroke-linejoin: round;" id="ezcGraphLine_28"/><ellipse cx="268.7541" cy="149.8044" rx="3.0000" ry="3.0000" style="fill: #000000; fill-opacity: 1.00; stroke: none;" id="ezcGraphCircle_29"/><ellipse cx="283.2213" cy="109.0000" rx="3.0000" ry="3.0000" style="fill: #000000; fill-opacity: 1.00; stroke: none;" id="ezcGraphCircle_30"/><path d=" M 320.4740,186.5268 L 361.5272,164.0000" style="fill: none; stroke: #000000; stroke-width: 1; stroke-opacity: 1.00; stroke-linecap: round; stroke-linejoin: round;" id="ezcGraphLine_32"/><ellipse cx="320.4740" cy="186.5268" rx="3.0000" ry="3.0000" style="fill: #000000; fill-opacity: 1.00; stroke: none;" id="ezcGraphCircle_33"/><ellipse cx="361.5272" cy="164.0000" rx="3.0000" ry="3.0000" style="fill: #000000; fill-opacity: 1.00; stroke: none;" id="ezcGraphCircle_34"/><path d=" M 297.4134,314.2826 L 294.2623,350.0000" style="fill: none; stroke: #000000; stroke-width: 1; stroke-opacity: 1.00; stroke-linecap: round; stroke-linejoin: round;" id="ezcGraphLine_36"/><ellipse cx="297.4134" cy="314.2826" rx="3.0000" ry="3.0000" style="fill: #000000; fill-opacity: 1.00; stroke: none;" id="ezcGraphCircle_37"/><ellipse cx="294.2623" cy="350.0000" rx="3.0000" ry="3.0000" style="fill: #000000; fill-opacity: 1.00; stroke: none;" id="ezcGraphCircle_38"/><g id="ezcGraphTextBox_3"><path d=" M 111.7000,42.0000 L 111.7000,0.5000 L 388.8000,0.5000 L 388.8000,42.0000 L 111.7000,42.0000 z " style="fill: #ffffff; fill-opacity: 0.00; stroke: none;" id="ezcGraphPolygon_40"/><text id="ezcGraphTextBox_3_text" x="112.2000" text-length="275.6000px" y="35.0000" style="font-size: 40px; font-family: 'Arial'; fill: #2e3436; fill-opacity: 1.00; stroke: none;">Storage Model</text></g><g id="ezcGraphTextBox_19" style=" cursor: pointer;" onclick="top.location = 'https://bsd-hardware.info/?view=computers&amp;f=storage_model&amp;v=Red+Hat+Virtio+SCSI&amp;p=0'"><path d=" M 76.7187,117.0000 L 76.7187,101.5000 L 211.7787,101.5000 L 211.7787,117.0000 L 76.7187,117.0000 z " style="fill: #ffffff; fill-opacity: 0.00; stroke: none;" id="ezcGraphPolygon_41"/><text id="ezcGraphTextBox_19_text" x="77.2187" text-length="133.5600px" y="113.9000" style="font-size: 14px; font-family: 'Arial'; fill: #2e3436; fill-opacity: 1.00; stroke: none;">Virtio SCSI (7.5%)</text></g><g id="ezcGraphTextBox_23" style=" cursor: pointer;" onclick="top.location = 'https://bsd-hardware.info/?view=computers&amp;f=storage_model&amp;v=Red+Hat+Virtio+block+device&amp;p=0'"><path d=" M 46.9908,173.0500 L 46.9908,143.4500 L 137.5308,143.4500 L 137.5308,173.0500 L 46.9908,173.0500 z " style="fill: #ffffff; fill-opacity: 0.00; stroke: none;" id="ezcGraphPolygon_42"/><text id="ezcGraphTextBox_23_text" x="47.4908" text-length="89.0400px" y="155.8500" style="font-size: 14px; font-family: 'Arial'; fill: #2e3436; fill-opacity: 1.00; stroke: none;">Virtio block</text><text id="ezcGraphTextBox_23_text" x="54.9108" text-length="81.6200px" y="171.2500" style="font-size: 14px; font-family: 'Arial'; fill: #2e3436; fill-opacity: 1.00; stroke: none;">... (15.6%)</text></g><g id="ezcGraphTextBox_27" style=" cursor: pointer;" onclick="top.location = 'https://bsd-hardware.info/?view=computers&amp;f=storage_model&amp;v=Intel+82371SB+PIIX3+IDE+%5BNatoma%2FTriton+II%5D&amp;p=0'"><path d=" M 6.0458,300.0500 L 6.0458,270.4500 L 126.2658,270.4500 L 126.2658,300.0500 L 6.0458,300.0500 z " style="fill: #ffffff; fill-opacity: 0.00; stroke: none;" id="ezcGraphPolygon_43"/><text id="ezcGraphTextBox_27_text" x="6.5458" text-length="118.7200px" y="282.8500" style="font-size: 14px; font-family: 'Arial'; fill: #2e3436; fill-opacity: 1.00; stroke: none;">82371SB PIIX3...</text><text id="ezcGraphTextBox_27_text" x="73.3258" text-length="51.9400px" y="298.2500" style="font-size: 14px; font-family: 'Arial'; fill: #2e3436; fill-opacity: 1.00; stroke: none;">(18.5%)</text></g><g id="ezcGraphTextBox_31" style=" cursor: pointer;" onclick="top.location = 'https://bsd-hardware.info/?view=computers&amp;f=storage_model&amp;v=LSI+Logic+%2F+Symbios+Logic+53c1030+PCI-X+Fusion-MPT+Dual+Ultra320+SCSI&amp;p=0'"><path d=" M 288.7213,124.0500 L 288.7213,94.4500 L 408.9413,94.4500 L 408.9413,124.0500 L 288.7213,124.0500 z " style="fill: #ffffff; fill-opacity: 0.00; stroke: none;" id="ezcGraphPolygon_44"/><text id="ezcGraphTextBox_31_text" x="289.2213" text-length="118.7200px" y="106.8500" style="font-size: 14px; font-family: 'Arial'; fill: #2e3436; fill-opacity: 1.00; stroke: none;">53c1030 PCI-X...</text><text id="ezcGraphTextBox_31_text" x="289.2213" text-length="44.5200px" y="122.2500" style="font-size: 14px; font-family: 'Arial'; fill: #2e3436; fill-opacity: 1.00; stroke: none;">(6.9%)</text></g><g id="ezcGraphTextBox_35"><path d=" M 367.0272,172.0000 L 367.0272,156.5000 L 472.4072,156.5000 L 472.4072,172.0000 L 367.0272,172.0000 z " style="fill: #ffffff; fill-opacity: 0.00; stroke: none;" id="ezcGraphPolygon_45"/><text id="ezcGraphTextBox_35_text" x="367.5272" text-length="103.8800px" y="168.9000" style="font-size: 14px; font-family: 'Arial'; fill: #2e3436; fill-opacity: 1.00; stroke: none;">Others (17.9%)</text></g><g id="ezcGraphTextBox_39" style=" cursor: pointer;" onclick="top.location = 'https://bsd-hardware.info/?view=computers&amp;f=storage_model&amp;v=Intel+82371AB%2FEB%2FMB+PIIX4+IDE&amp;p=0'"><path d=" M 299.7623,365.0500 L 299.7623,335.4500 L 419.9823,335.4500 L 419.9823,365.0500 L 299.7623,365.0500 z " style="fill: #ffffff; fill-opacity: 0.00; stroke: none;" id="ezcGraphPolygon_46"/><text id="ezcGraphTextBox_39_text" x="300.2623" text-length="118.7200px" y="347.8500" style="font-size: 14px; font-family: 'Arial'; fill: #2e3436; fill-opacity: 1.00; stroke: none;">82371AB/EB/MB...</text><text id="ezcGraphTextBox_39_text" x="300.2623" text-length="51.9400px" y="363.2500" style="font-size: 14px; font-family: 'Arial'; fill: #2e3436; fill-opacity: 1.00; stroke: none;">(33.5%)</text></g></g></svg>
