<?xml version="1.0"?>
<svg xmlns="http://www.w3.org/2000/svg" width="500" height="420" version="1.0" id="ezcGraph"><defs/><g id="ezcGraphChart" color-rendering="optimizeQuality" shape-rendering="geometricPrecision" text-rendering="optimizeLegibility"><path d=" M 0.0000,420.0000 L 0.0000,0.0000 L 500.0000,0.0000 L 500.0000,420.0000 L 0.0000,420.0000 z " style="fill: #eeeeec; fill-opacity: 1.00; stroke: none;" id="ezcGraphPolygon_1"/><path d=" M 0.0000,42.0000 L 0.0000,0.0000 L 500.0000,0.0000 L 500.0000,42.0000 L 0.0000,42.0000 z " style="fill: #000000; fill-opacity: 0.00; stroke: none;" id="ezcGraphPolygon_2"/><path d="M 244.08,242.01 L 356.58,242.01 A 112.50,112.50 0 1,1 182.10,148.12 z" style="fill: #3465a4; fill-opacity: 1.00; stroke: none; cursor: pointer;" id="ezcGraphCircleSector_4" onclick="top.location = 'https://bsd-hardware.info/?view=computers&amp;f=mon_resolution&amp;v=1920x1440&amp;p=0'"/><path d="M 243.81,242.51 L 356.08,242.51 A 112.00,112.00 0 1,1 181.96,148.81 z" style="fill: none; stroke: #1a3352; stroke-width: 1; stroke-opacity: 1.00; stroke-linecap: round; stroke-linejoin: round;" id="ezcGraphCircleSector_5"/><path d="M 250.00,231.00 L 188.02,137.11 A 112.50,112.50 0 0,1 360.69,210.91 z" style="fill: #4e9a06; fill-opacity: 1.00; stroke: none; cursor: pointer;" id="ezcGraphCircleSector_6" onclick="top.location = 'https://bsd-hardware.info/?view=computers&amp;f=mon_resolution&amp;v=2048x1152&amp;p=0'"/><path d="M 250.24,230.45 L 188.72,137.25 A 112.00,112.00 0 0,1 360.11,210.51 z" style="fill: none; stroke: #274d03; stroke-width: 1; stroke-opacity: 1.00; stroke-linecap: round; stroke-linejoin: round;" id="ezcGraphCircleSector_7"/><path d="M 250.00,231.00 L 360.69,210.91 A 112.50,112.50 0 0,1 362.50,231.00 z" style="fill: #cc0000; fill-opacity: 1.00; stroke: none; cursor: pointer;" id="ezcGraphCircleSector_8" onclick="top.location = 'https://bsd-hardware.info/?view=computers&amp;f=mon_resolution&amp;v=1920x1080&amp;p=0'"/><path d="M 255.56,230.50 L 360.29,211.49 A 112.00,112.00 0 0,1 362.00,230.50 z" style="fill: none; stroke: #660000; stroke-width: 1; stroke-opacity: 1.00; stroke-linecap: round; stroke-linejoin: round;" id="ezcGraphCircleSector_9"/><path d=" M 204.5876,315.3904 L 212.6312,352.0000" style="fill: none; stroke: #000000; stroke-width: 1; stroke-opacity: 1.00; stroke-linecap: round; stroke-linejoin: round;" id="ezcGraphLine_10"/><ellipse cx="204.5876" cy="315.3904" rx="3.0000" ry="3.0000" style="fill: #000000; fill-opacity: 1.00; stroke: none;" id="ezcGraphCircle_11"/><ellipse cx="212.6312" cy="352.0000" rx="3.0000" ry="3.0000" style="fill: #000000; fill-opacity: 1.00; stroke: none;" id="ezcGraphCircle_12"/><path d=" M 282.7521,154.3727 L 304.9898,116.0000" style="fill: none; stroke: #000000; stroke-width: 1; stroke-opacity: 1.00; stroke-linecap: round; stroke-linejoin: round;" id="ezcGraphLine_14"/><ellipse cx="282.7521" cy="154.3727" rx="3.0000" ry="3.0000" style="fill: #000000; fill-opacity: 1.00; stroke: none;" id="ezcGraphCircle_15"/><ellipse cx="304.9898" cy="116.0000" rx="3.0000" ry="3.0000" style="fill: #000000; fill-opacity: 1.00; stroke: none;" id="ezcGraphCircle_16"/><path d=" M 332.9979,223.5301 L 380.4227,219.0000" style="fill: none; stroke: #000000; stroke-width: 1; stroke-opacity: 1.00; stroke-linecap: round; stroke-linejoin: round;" id="ezcGraphLine_18"/><ellipse cx="332.9979" cy="223.5301" rx="3.0000" ry="3.0000" style="fill: #000000; fill-opacity: 1.00; stroke: none;" id="ezcGraphCircle_19"/><ellipse cx="380.4227" cy="219.0000" rx="3.0000" ry="3.0000" style="fill: #000000; fill-opacity: 1.00; stroke: none;" id="ezcGraphCircle_20"/><g id="ezcGraphTextBox_3"><path d=" M 58.7000,42.0000 L 58.7000,0.5000 L 441.8000,0.5000 L 441.8000,42.0000 L 58.7000,42.0000 z " style="fill: #ffffff; fill-opacity: 0.00; stroke: none;" id="ezcGraphPolygon_22"/><text id="ezcGraphTextBox_3_text" x="59.2000" text-length="381.6000px" y="35.0000" style="font-size: 40px; font-family: 'Arial'; fill: #2e3436; fill-opacity: 1.00; stroke: none;">Monitor Resolution</text></g><g id="ezcGraphTextBox_13" style=" cursor: pointer;" onclick="top.location = 'https://bsd-hardware.info/?view=computers&amp;f=mon_resolution&amp;v=1920x1440&amp;p=0'"><path d=" M 52.9612,361.5000 L 52.9612,343.0000 L 207.6312,343.0000 L 207.6312,361.5000 L 52.9612,361.5000 z " style="fill: #ffffff; fill-opacity: 0.00; stroke: none;" id="ezcGraphPolygon_23"/><text id="ezcGraphTextBox_13_text" x="53.4612" text-length="153.1700px" y="357.9500" style="font-size: 17px; font-family: 'Arial'; fill: #2e3436; fill-opacity: 1.00; stroke: none;">1920x1440 (65.7%)</text></g><g id="ezcGraphTextBox_17" style=" cursor: pointer;" onclick="top.location = 'https://bsd-hardware.info/?view=computers&amp;f=mon_resolution&amp;v=2048x1152&amp;p=0'"><path d=" M 310.4898,125.5000 L 310.4898,107.0000 L 465.1598,107.0000 L 465.1598,125.5000 L 310.4898,125.5000 z " style="fill: #ffffff; fill-opacity: 0.00; stroke: none;" id="ezcGraphPolygon_24"/><text id="ezcGraphTextBox_17_text" x="310.9898" text-length="153.1700px" y="121.9500" style="font-size: 17px; font-family: 'Arial'; fill: #2e3436; fill-opacity: 1.00; stroke: none;">2048x1152 (31.4%)</text></g><g id="ezcGraphTextBox_21" style=" cursor: pointer;" onclick="top.location = 'https://bsd-hardware.info/?view=computers&amp;f=mon_resolution&amp;v=1920x1080&amp;p=0'"><path d=" M 385.9227,237.0500 L 385.9227,201.4500 L 495.5427,201.4500 L 495.5427,237.0500 L 385.9227,237.0500 z " style="fill: #ffffff; fill-opacity: 0.00; stroke: none;" id="ezcGraphPolygon_25"/><text id="ezcGraphTextBox_21_text" x="386.4227" text-length="81.0900px" y="216.4000" style="font-size: 17px; font-family: 'Arial'; fill: #2e3436; fill-opacity: 1.00; stroke: none;">1920x1080</text><text id="ezcGraphTextBox_21_text" x="386.4227" text-length="108.1200px" y="235.1000" style="font-size: 17px; font-family: 'Arial'; fill: #2e3436; fill-opacity: 1.00; stroke: none;">(FHD) (2.9%)</text></g></g></svg>
