<?xml version="1.0"?>
<svg xmlns="http://www.w3.org/2000/svg" width="500" height="420" version="1.0" id="ezcGraph"><defs/><g id="ezcGraphChart" color-rendering="optimizeQuality" shape-rendering="geometricPrecision" text-rendering="optimizeLegibility"><path d=" M 0.0000,420.0000 L 0.0000,0.0000 L 500.0000,0.0000 L 500.0000,420.0000 L 0.0000,420.0000 z " style="fill: #eeeeec; fill-opacity: 1.00; stroke: none;" id="ezcGraphPolygon_1"/><path d=" M 0.0000,42.0000 L 0.0000,0.0000 L 500.0000,0.0000 L 500.0000,42.0000 L 0.0000,42.0000 z " style="fill: #000000; fill-opacity: 0.00; stroke: none;" id="ezcGraphPolygon_2"/><path d="M 242.88,241.28 L 355.38,241.28 A 112.50,112.50 0 1,1 203.29,135.97 z" style="fill: #3465a4; fill-opacity: 1.00; stroke: none; cursor: pointer;" id="ezcGraphCircleSector_4" onclick="top.location = 'https://bsd-hardware.info/?view=computers&amp;f=node_total_drives&amp;v=1&amp;p=0'"/><path d="M 242.54,241.78 L 354.88,241.78 A 112.00,112.00 0 1,1 203.00,136.62 z" style="fill: none; stroke: #1a3352; stroke-width: 1; stroke-opacity: 1.00; stroke-linecap: round; stroke-linejoin: round;" id="ezcGraphCircleSector_5"/><path d="M 250.00,231.00 L 210.41,125.70 A 112.50,112.50 0 0,1 362.48,228.91 z" style="fill: #4e9a06; fill-opacity: 1.00; stroke: none; cursor: pointer;" id="ezcGraphCircleSector_6" onclick="top.location = 'https://bsd-hardware.info/?view=computers&amp;f=node_total_drives&amp;v=0&amp;p=0'"/><path d="M 250.34,230.49 L 211.05,125.99 A 112.00,112.00 0 0,1 361.97,228.42 z" style="fill: none; stroke: #274d03; stroke-width: 1; stroke-opacity: 1.00; stroke-linecap: round; stroke-linejoin: round;" id="ezcGraphCircleSector_7"/><path d="M 250.00,231.00 L 362.48,228.91 A 112.50,112.50 0 0,1 362.50,229.96 z" style="fill: #cc0000; fill-opacity: 1.00; stroke: none; cursor: pointer;" id="ezcGraphCircleSector_8" onclick="top.location = 'https://bsd-hardware.info/?view=computers&amp;f=node_total_drives&amp;v=3&amp;p=0'"/><path d="M 357.74,229.50 L 361.99,229.42 A 112.00,112.00 0 0,1 361.99,229.46 z" style="fill: none; stroke: #660000; stroke-width: 1; stroke-opacity: 1.00; stroke-linecap: round; stroke-linejoin: round;" id="ezcGraphCircleSector_9"/><path d="M 250.00,231.00 L 362.50,229.96 A 112.50,112.50 0 0,1 362.50,231.00 z" style="fill: #edd400; fill-opacity: 1.00; stroke: none; cursor: pointer;" id="ezcGraphCircleSector_10" onclick="top.location = 'https://bsd-hardware.info/?view=computers&amp;f=node_total_drives&amp;v=2&amp;p=0'"/><path d="M 357.75,230.50 L 362.00,230.46 A 112.00,112.00 0 0,1 362.00,230.50 z" style="fill: none; stroke: #776a00; stroke-width: 1; stroke-opacity: 1.00; stroke-linecap: round; stroke-linejoin: round;" id="ezcGraphCircleSector_11"/><path d=" M 195.4479,309.7915 L 190.5584,344.0000" style="fill: none; stroke: #000000; stroke-width: 1; stroke-opacity: 1.00; stroke-linecap: round; stroke-linejoin: round;" id="ezcGraphLine_12"/><ellipse cx="195.4479" cy="309.7915" rx="3.0000" ry="3.0000" style="fill: #000000; fill-opacity: 1.00; stroke: none;" id="ezcGraphCircle_13"/><ellipse cx="190.5584" cy="344.0000" rx="3.0000" ry="3.0000" style="fill: #000000; fill-opacity: 1.00; stroke: none;" id="ezcGraphCircle_14"/><path d=" M 296.7987,162.0484 L 325.3470,127.0000" style="fill: none; stroke: #000000; stroke-width: 1; stroke-opacity: 1.00; stroke-linecap: round; stroke-linejoin: round;" id="ezcGraphLine_16"/><ellipse cx="296.7987" cy="162.0484" rx="3.0000" ry="3.0000" style="fill: #000000; fill-opacity: 1.00; stroke: none;" id="ezcGraphCircle_17"/><ellipse cx="325.3470" cy="127.0000" rx="3.0000" ry="3.0000" style="fill: #000000; fill-opacity: 1.00; stroke: none;" id="ezcGraphCircle_18"/><path d=" M 333.3253,229.8399 L 380.9840,229.0000" style="fill: none; stroke: #000000; stroke-width: 1; stroke-opacity: 1.00; stroke-linecap: round; stroke-linejoin: round;" id="ezcGraphLine_20"/><ellipse cx="333.3253" cy="229.8399" rx="3.0000" ry="3.0000" style="fill: #000000; fill-opacity: 1.00; stroke: none;" id="ezcGraphCircle_21"/><ellipse cx="380.9840" cy="229.0000" rx="3.0000" ry="3.0000" style="fill: #000000; fill-opacity: 1.00; stroke: none;" id="ezcGraphCircle_22"/><path d=" M 333.3324,230.6133 L 375.7638,266.8000" style="fill: none; stroke: #000000; stroke-width: 1; stroke-opacity: 1.00; stroke-linecap: round; stroke-linejoin: round;" id="ezcGraphLine_24"/><ellipse cx="333.3324" cy="230.6133" rx="3.0000" ry="3.0000" style="fill: #000000; fill-opacity: 1.00; stroke: none;" id="ezcGraphCircle_25"/><ellipse cx="375.7638" cy="266.8000" rx="3.0000" ry="3.0000" style="fill: #000000; fill-opacity: 1.00; stroke: none;" id="ezcGraphCircle_26"/><g id="ezcGraphTextBox_3"><path d=" M 122.3000,42.0000 L 122.3000,0.5000 L 378.2000,0.5000 L 378.2000,42.0000 L 122.3000,42.0000 z " style="fill: #ffffff; fill-opacity: 0.00; stroke: none;" id="ezcGraphPolygon_28"/><text id="ezcGraphTextBox_3_text" x="122.8000" text-length="254.4000px" y="35.0000" style="font-size: 40px; font-family: 'Arial'; fill: #2e3436; fill-opacity: 1.00; stroke: none;">Total Drives</text></g><g id="ezcGraphTextBox_15" style=" cursor: pointer;" onclick="top.location = 'https://bsd-hardware.info/?view=computers&amp;f=node_total_drives&amp;v=1&amp;p=0'"><path d=" M 60.9924,357.9000 L 60.9924,330.6000 L 185.5584,330.6000 L 185.5584,357.9000 L 60.9924,357.9000 z " style="fill: #ffffff; fill-opacity: 0.00; stroke: none;" id="ezcGraphPolygon_29"/><text id="ezcGraphTextBox_15_text" x="61.4924" text-length="123.0660px" y="353.0300" style="font-size: 25px; font-family: 'Arial'; fill: #2e3436; fill-opacity: 1.00; stroke: none;">1 (69.3%)</text></g><g id="ezcGraphTextBox_19" style=" cursor: pointer;" onclick="top.location = 'https://bsd-hardware.info/?view=computers&amp;f=node_total_drives&amp;v=0&amp;p=0'"><path d=" M 330.8470,140.9000 L 330.8470,113.6000 L 455.4130,113.6000 L 455.4130,140.9000 L 330.8470,140.9000 z " style="fill: #ffffff; fill-opacity: 0.00; stroke: none;" id="ezcGraphPolygon_30"/><text id="ezcGraphTextBox_19_text" x="331.3470" text-length="123.0660px" y="136.0300" style="font-size: 25px; font-family: 'Arial'; fill: #2e3436; fill-opacity: 1.00; stroke: none;">0 (30.4%)</text></g><g id="ezcGraphTextBox_23" style=" cursor: pointer;" onclick="top.location = 'https://bsd-hardware.info/?view=computers&amp;f=node_total_drives&amp;v=3&amp;p=0'"><path d=" M 386.4840,242.9000 L 386.4840,215.6000 L 497.3760,215.6000 L 497.3760,242.9000 L 386.4840,242.9000 z " style="fill: #ffffff; fill-opacity: 0.00; stroke: none;" id="ezcGraphPolygon_31"/><text id="ezcGraphTextBox_23_text" x="386.9840" text-length="109.3920px" y="238.0300" style="font-size: 25px; font-family: 'Arial'; fill: #2e3436; fill-opacity: 1.00; stroke: none;">3 (0.1%)</text></g><g id="ezcGraphTextBox_27" style=" cursor: pointer;" onclick="top.location = 'https://bsd-hardware.info/?view=computers&amp;f=node_total_drives&amp;v=2&amp;p=0'"><path d=" M 381.2638,280.7000 L 381.2638,253.4000 L 492.1558,253.4000 L 492.1558,280.7000 L 381.2638,280.7000 z " style="fill: #ffffff; fill-opacity: 0.00; stroke: none;" id="ezcGraphPolygon_32"/><text id="ezcGraphTextBox_27_text" x="381.7638" text-length="109.3920px" y="275.8300" style="font-size: 25px; font-family: 'Arial'; fill: #2e3436; fill-opacity: 1.00; stroke: none;">2 (0.1%)</text></g></g></svg>
